<?xml version="1.0" encoding="UTF-8"?><svg id="Layer_2" xmlns="http://www.w3.org/2000/svg" viewBox="0 0 32 32"><defs><style>.cls-1{stroke-width:0px;}</style></defs><path class="cls-1" d="M11.63,22.32h2.53v-12.63h-2.53v12.63ZM17.85,22.32h2.53v-12.63h-2.53v12.63ZM16,32c-2.21,0-4.29-.42-6.24-1.26-1.95-.84-3.64-1.98-5.08-3.42-1.44-1.44-2.58-3.13-3.42-5.08C.42,20.3,0,18.22,0,16c0-2.21.42-4.29,1.26-6.24.84-1.95,1.98-3.64,3.42-5.08,1.44-1.44,3.13-2.58,5.08-3.42,1.95-.84,4.03-1.26,6.24-1.26s4.29.42,6.24,1.26c1.95.84,3.64,1.98,5.08,3.42,1.44,1.44,2.58,3.13,3.42,5.08.84,1.95,1.26,4.03,1.26,6.24s-.42,4.29-1.26,6.24c-.84,1.95-1.98,3.64-3.42,5.08-1.44,1.44-3.13,2.58-5.08,3.42-1.95.84-4.03,1.26-6.24,1.26ZM16,29.47c3.76,0,6.95-1.31,9.56-3.92,2.61-2.61,3.92-5.8,3.92-9.56s-1.31-6.95-3.92-9.56-5.8-3.92-9.56-3.92-6.95,1.31-9.56,3.92-3.92,5.8-3.92,9.56,1.31,6.95,3.92,9.56,5.8,3.92,9.56,3.92Z"/></svg>
